<svg width="980" height="560" viewBox="0 0 980 560" fill="none" xmlns="http://www.w3.org/2000/svg">
  <rect width="980" height="560" fill="#F7F4EF"/>
  <g transform="translate(284 58)">
    <path d="M45 0H173C216 0 247 32 254 78H238C229 40 206 20 170 20H100V148H180V168H100V296H134V316H45V296H75V20H45V0Z" fill="url(#easyvailGradient)" opacity="0.96"/>
    <path d="M69 171C69 109 108 69 169 69C200 69 226 81 241 104L226 117C213 98 194 88 169 88C120 88 90 120 90 171C90 223 122 256 171 256C200 256 224 242 237 217L253 228C237 259 208 276 171 276C108 276 69 234 69 171Z" fill="#F7F4EF"/>
    <path d="M42 151C60 88 103 53 165 53C181 53 196 56 211 62C196 57 181 55 166 56C110 61 74 97 60 157C47 213 58 273 93 334C44 291 24 227 42 151Z" fill="url(#easyvailGradient)"/>
    <path d="M64 168C81 115 117 85 168 80C180 79 193 80 204 84C190 82 177 82 164 85C120 95 91 126 78 175C65 222 71 271 99 320C60 284 47 231 64 168Z" fill="#F7F4EF"/>
    <path d="M85 183C101 141 130 117 171 111C182 110 192 110 202 113C191 114 180 116 170 120C136 133 113 158 101 195C89 232 92 272 111 313C82 282 73 238 85 183Z" fill="url(#easyvailGradient)"/>
    <path d="M201 90H230L278 251L325 90H351L290 296H266L201 90Z" fill="url(#easyvailGradient)" opacity="0.96"/>
    <path d="M256 143L265 165L287 174L265 183L256 205L247 183L225 174L247 165L256 143Z" fill="#C6A257"/>
  </g>
  <text x="490" y="484" text-anchor="middle" fill="#9B5B5E" font-family="Georgia, 'Times New Roman', serif" font-size="82" letter-spacing="1">EasyVail BD</text>
  <defs>
    <linearGradient id="easyvailGradient" x1="5" y1="0" x2="322" y2="331" gradientUnits="userSpaceOnUse">
      <stop stop-color="#A7505A"/>
      <stop offset="0.47" stop-color="#C36C69"/>
      <stop offset="1" stop-color="#C9A24F"/>
    </linearGradient>
  </defs>
</svg>
