<svg width="512" height="512" viewBox="0 0 512 512" fill="none" xmlns="http://www.w3.org/2000/svg">
  <rect width="512" height="512" fill="#F7F4EF"/>
  <path d="M181 92H309C352 92 383 124 390 170H374C365 132 342 112 306 112H236V240H316V260H236V388H270V408H181V388H211V112H181V92Z" fill="url(#easyvailGradient)" opacity="0.96"/>
  <path d="M205 263C205 201 244 161 305 161C336 161 362 173 377 196L362 209C349 190 330 180 305 180C256 180 226 212 226 263C226 315 258 348 307 348C336 348 360 334 373 309L389 320C373 351 344 368 307 368C244 368 205 326 205 263Z" fill="#F7F4EF"/>
  <path d="M178 243C196 180 239 145 301 145C317 145 332 148 347 154C332 149 317 147 302 148C246 153 210 189 196 249C183 305 194 365 229 426C180 383 160 319 178 243Z" fill="url(#easyvailGradient)"/>
  <path d="M200 260C217 207 253 177 304 172C316 171 329 172 340 176C326 174 313 174 300 177C256 187 227 218 214 267C201 314 207 363 235 412C196 376 183 323 200 260Z" fill="#F7F4EF"/>
  <path d="M221 275C237 233 266 209 307 203C318 202 328 202 338 205C327 206 316 208 306 212C272 225 249 250 237 287C225 324 228 364 247 405C218 374 209 330 221 275Z" fill="url(#easyvailGradient)"/>
  <path d="M337 182H366L414 343L461 182H487L426 388H402L337 182Z" fill="url(#easyvailGradient)" opacity="0.96"/>
  <path d="M392 235L401 257L423 266L401 275L392 297L383 275L361 266L383 257L392 235Z" fill="#C6A257"/>
  <defs>
    <linearGradient id="easyvailGradient" x1="141" y1="92" x2="458" y2="423" gradientUnits="userSpaceOnUse">
      <stop stop-color="#A7505A"/>
      <stop offset="0.47" stop-color="#C36C69"/>
      <stop offset="1" stop-color="#C9A24F"/>
    </linearGradient>
  </defs>
</svg>
